HIERARCHY
ROOT Hips
{
	OFFSET 0.000000 0.000000 0.000000
	CHANNELS 6 Xposition Yposition Zposition Xrotation Yrotation Zrotation
	JOINT LeftUpLeg_virtual
	{
		OFFSET 0.000000 0.000000 0.000000
		CHANNELS 3 Xrotation Yrotation Zrotation
		JOINT LeftUpLeg
		{
			OFFSET 10.205400 -3.823500 0.155100
			CHANNELS 3 Xrotation Yrotation Zrotation
			JOINT LeftLeg
			{
				OFFSET 0.708757 -12.982077 0.567790
				CHANNELS 3 Xrotation Yrotation Zrotation
				JOINT LeftFoot
				{
					OFFSET -0.708756 -10.717838 -2.184338
					CHANNELS 3 Xrotation Yrotation Zrotation
					JOINT LeftToeBase
					{
						OFFSET 0.108149 -7.191104 7.560241
						CHANNELS 3 Xrotation Yrotation Zrotation
						JOINT LeftToe_End
						{
							OFFSET 0.070230 0.081724 4.490308
							CHANNELS 3 Xrotation Yrotation Zrotation
							End Site
							{
								OFFSET 0 0 0
							}
						}
					}
				}
			}
		}
	}
	JOINT RightUpLeg_virtual
	{
		OFFSET 0.000000 0.000000 0.000000
		CHANNELS 3 Xrotation Yrotation Zrotation
		JOINT RightUpLeg
		{
			OFFSET -10.205400 -3.823500 0.005500
			CHANNELS 3 Xrotation Yrotation Zrotation
			JOINT RightLeg
			{
				OFFSET -0.708756 -12.982134 0.610632
				CHANNELS 3 Xrotation Yrotation Zrotation
				JOINT RightFoot
				{
					OFFSET 0.708754 -10.717769 -1.945823
					CHANNELS 3 Xrotation Yrotation Zrotation
					JOINT RightToeBase
					{
						OFFSET -0.108140 -7.191069 7.372968
						CHANNELS 3 Xrotation Yrotation Zrotation
						JOINT RightToe_End
						{
							OFFSET -0.070227 0.081735 4.479403
							CHANNELS 3 Xrotation Yrotation Zrotation
							End Site
							{
								OFFSET 0 0 0
							}
						}
					}
				}
			}
		}
	}
	JOINT Spine_virtual
	{
		OFFSET 0.000000 0.000000 0.000000
		CHANNELS 3 Xrotation Yrotation Zrotation
		JOINT Spine
		{
			OFFSET 0.000000 6.876099 0.125700
			CHANNELS 3 Xrotation Yrotation Zrotation
			JOINT Spine1
			{
				OFFSET 0.000000 5.730043 0.104720
				CHANNELS 3 Xrotation Yrotation Zrotation
				JOINT Spine1_split
				{
					OFFSET 0.000000 5.730043 0.104720
					CHANNELS 3 Xrotation Yrotation Zrotation
					JOINT Spine2
					{
						OFFSET 0.000000 5.730043 0.104720
						CHANNELS 3 Xrotation Yrotation Zrotation
						JOINT Neck_virtual
						{
							OFFSET 0.000000 0.000000 0.000000
							CHANNELS 3 Xrotation Yrotation Zrotation
							JOINT Neck
							{
								OFFSET 0.000000 10.314075 0.188496
								CHANNELS 3 Xrotation Yrotation Zrotation
								JOINT Head
								{
									OFFSET 0.000000 7.643700 -2.377400
									CHANNELS 3 Xrotation Yrotation Zrotation
									JOINT HeadTop_End
									{
										OFFSET 0.000000 43.788605 -13.619600
										CHANNELS 3 Xrotation Yrotation Zrotation
										End Site
										{
											OFFSET 0 0 0
										}
									}
								}
							}
						}
						JOINT LeftShoulder_virtual
						{
							OFFSET 0.000000 0.000000 0.000000
							CHANNELS 3 Xrotation Yrotation Zrotation
							JOINT LeftShoulder
							{
								OFFSET 2.196100 4.412489 0.087492
								CHANNELS 3 Xrotation Yrotation Zrotation
								JOINT LeftShoulder_split
								{
									OFFSET 2.196100 4.412489 0.087492
									CHANNELS 3 Xrotation Yrotation Zrotation
									JOINT LeftArm
									{
										OFFSET 8.771219 -2.981674 -0.026999
										CHANNELS 3 Xrotation Yrotation Zrotation
										JOINT LeftForeArm
										{
											OFFSET 8.512804 0.000000 -0.000000
											CHANNELS 3 Xrotation Yrotation Zrotation
											JOINT LeftHand
											{
												OFFSET 18.484802 0.000000 -0.000000
												CHANNELS 3 Xrotation Yrotation Zrotation
												End Site
												{
													OFFSET 0 0 0
												}
											}
										}
									}
								}
							}
						}
						JOINT RightShoulder_virtual
						{
							OFFSET 0.000000 0.000000 0.000000
							CHANNELS 3 Xrotation Yrotation Zrotation
							JOINT RightShoulder
							{
								OFFSET -2.196100 4.412496 0.070690
								CHANNELS 3 Xrotation Yrotation Zrotation
								JOINT RightShoulder_split
								{
									OFFSET -2.196100 4.412496 0.070690
									CHANNELS 3 Xrotation Yrotation Zrotation
									JOINT RightArm
									{
										OFFSET -8.771282 -2.981682 -0.094208
										CHANNELS 3 Xrotation Yrotation Zrotation
										JOINT RightForeArm
										{
											OFFSET -8.494598 0.000000 0.000000
											CHANNELS 3 Xrotation Yrotation Zrotation
											JOINT RightHand
											{
												OFFSET -18.483803 0.000000 0.000001
												CHANNELS 3 Xrotation Yrotation Zrotation
												End Site
												{
													OFFSET 0 0 0
												}
											}
										}
									}
								}
							}
						}
					}
				}
			}
		}
	}
}
MOTION
Frames: 8
Frame Time: 0.03333333
-0.442172 27.602053 -0.333445 0.000000 0.000000 0.000000 -19.758778 1.610068 -0.336948 -12.613960 -0.836366 16.705080 61.183967 -0.555320 0.256391 -34.483941 3.604025 -16.337517 -1.360748 -0.570075 -0.711650 0.000000 0.000000 0.000000 -19.246983 1.768053 -0.249660 -2.637545 -8.178124 -18.888232 55.878105 5.440508 -0.013897 -38.530859 -6.154400 14.883266 3.068972 -0.998574 -1.768791 0.000000 0.000000 0.000000 -19.763642 3.522530 -0.726204 19.040969 -1.808157 2.972502 9.432642 -0.269322 1.384619 1.508653 4.358394 -1.251769 0.000000 0.000000 0.000000 8.168682 -0.728488 1.289252 -15.782757 0.953821 -1.912193 -18.308718 -2.328633 1.498892 0.000000 0.000000 0.000000 10.238767 -1.101665 1.471076 1.644748 -7.654987 -6.344183 -8.529969 -0.988452 -5.973185 -7.058425 -17.495092 -53.596785 64.462533 -58.417652 56.700689 0.000000 0.000000 0.000000 8.831137 -0.598132 1.154987 10.555109 -0.525730 14.045340 -1.992233 1.572802 -1.975569 -24.309572 10.929379 63.162734 82.875057 66.645748 -79.060198 0.000000 0.000000 0.000000 
-0.413093 27.573298 -0.336060 0.000000 0.000000 0.000000 -19.602535 2.245490 -0.217906 -12.729406 -0.911090 16.492212 61.375267 -0.430006 0.512655 -34.325044 3.705249 -16.481950 -1.739090 -0.571080 -0.647248 0.000000 0.000000 0.000000 -19.070539 2.395238 -0.212610 -2.524062 -7.867014 -19.036089 55.546476 5.611346 -0.157310 -38.474630 -6.285875 15.006960 2.590615 -0.892076 -1.791355 0.000000 0.000000 0.000000 -19.415832 3.546195 -0.634823 18.894559 -1.798833 2.885070 9.376029 -0.403382 1.234656 1.527102 3.478289 -1.367620 0.000000 0.000000 0.000000 8.175826 -0.720158 1.149308 -14.996927 0.977978 -2.339981 -18.592038 -1.782585 1.281451 0.000000 0.000000 0.000000 10.095220 -1.142676 1.529128 1.524416 -8.056597 -6.446972 -7.450562 -0.192711 -5.301337 -8.834382 -16.018040 -53.455673 62.043861 -58.696508 53.999920 0.000000 0.000000 0.000000 9.018703 -0.673940 1.162381 10.753129 -0.664243 15.035622 -3.450666 1.328157 -1.071967 -24.135153 8.974634 59.964252 80.815563 66.360841 -75.789248 0.000000 0.000000 0.000000 
-0.380396 27.545841 -0.344511 0.000000 0.000000 0.000000 -18.991346 3.619304 -0.094425 -13.275310 -1.651935 16.194660 61.824127 -0.270832 0.863560 -34.157564 3.441437 -16.122469 -2.138456 -0.572538 -0.510947 0.000000 0.000000 0.000000 -18.443603 4.139452 -0.078649 -2.118476 -8.171693 -19.046404 55.016781 5.560230 -0.218440 -38.474889 -6.648784 14.883479 2.357656 -0.883878 -1.495411 0.000000 0.000000 0.000000 -18.807848 4.461463 -0.390467 18.681267 -1.830851 2.728317 9.071976 -0.643963 1.062510 1.169834 2.486025 -0.542442 0.000000 0.000000 0.000000 7.997345 -0.856032 1.070418 -13.519624 0.808450 -2.775537 -18.520229 -1.250698 0.495219 0.000000 0.000000 0.000000 9.684733 -1.243385 1.609141 1.303113 -9.258572 -6.747280 -6.682117 0.292129 -4.563127 -10.195524 -14.690859 -51.811018 58.068021 -57.301722 48.196803 0.000000 0.000000 0.000000 9.085275 -0.956949 1.128760 10.851621 -1.153026 16.718809 -4.289885 2.046417 -0.070442 -23.271371 6.024119 53.060533 85.874684 68.563959 -79.126860 0.000000 0.000000 0.000000 
-0.341229 27.542210 -0.363659 0.000000 0.000000 0.000000 -17.950096 5.563691 -0.012312 -14.252015 -3.066780 15.811553 62.151484 -0.142555 1.223786 -34.065271 2.895746 -15.441255 -2.097278 -0.556257 -0.419832 0.000000 0.000000 0.000000 -17.502995 6.663317 0.075542 -1.606766 -9.066117 -18.965152 54.422442 5.318651 -0.169069 -38.626434 -7.257575 14.559216 2.534293 -0.947203 -1.071409 0.000000 0.000000 0.000000 -17.889118 6.141115 -0.114584 18.427089 -1.946633 2.547110 8.536039 -1.021910 0.923856 0.726282 1.513860 0.693080 0.000000 0.000000 0.000000 7.609930 -1.134102 1.090423 -11.798552 0.403708 -2.781890 -18.174175 -0.691356 -0.719562 0.000000 0.000000 0.000000 9.112715 -1.455194 1.712411 1.043533 -10.864478 -7.325180 -5.577332 0.053147 -3.993316 -10.650079 -13.957882 -48.874593 54.014628 -54.632200 40.885543 0.000000 0.000000 0.000000 8.828588 -1.422664 1.080616 10.815226 -2.004783 18.443080 -4.561979 3.026824 0.633118 -23.301083 2.404110 44.502989 97.541501 72.225583 -89.187162 0.000000 0.000000 0.000000 
-0.299305 27.592800 -0.388643 0.000000 0.000000 0.000000 -16.530058 8.004497 0.023339 -15.589577 -5.029152 15.237213 62.043396 -0.133701 1.506790 -33.857005 2.175838 -14.864068 -1.590619 -0.507405 -0.423752 0.000000 0.000000 0.000000 -16.334935 9.512387 0.202165 -1.056421 -10.497904 -18.834824 53.773014 4.938645 0.023076 -38.927570 -8.056002 14.137561 3.028133 -1.014976 -0.750005 0.000000 0.000000 0.000000 -16.700467 8.450278 0.112130 18.172652 -2.160229 2.373507 7.842698 -1.536167 0.872181 0.440070 1.005374 1.089883 0.000000 0.000000 0.000000 7.086354 -1.576946 1.257847 -10.195105 -0.327172 -1.996784 -17.737895 -0.282621 -2.050347 0.000000 0.000000 0.000000 8.404155 -1.811817 1.831225 0.819594 -12.537235 -8.115510 -4.409753 -0.413099 -3.719680 -10.120108 -13.758902 -45.039801 51.301141 -51.956289 33.887727 0.000000 0.000000 0.000000 8.169655 -2.048616 1.054749 10.574247 -3.320560 19.326906 -3.297928 3.678714 0.602273 -26.549746 -1.043171 36.329561 118.858228 75.378166 -109.450373 0.000000 0.000000 0.000000 
-0.234970 27.744293 -0.401262 0.000000 0.000000 0.000000 -14.871451 10.759563 0.051501 -17.109586 -7.215571 14.370503 61.341683 -0.284624 1.627524 -33.185799 1.423258 -14.736855 -0.972214 -0.432418 -0.462162 0.000000 0.000000 0.000000 -14.988806 12.295142 0.300164 -0.464111 -12.372177 -18.720519 52.876084 4.499079 0.328503 -39.243098 -8.924983 13.698907 3.576594 -1.033393 -0.689258 0.000000 0.000000 0.000000 -15.355800 11.048955 0.292033 17.938350 -2.478034 2.252439 7.042882 -2.155124 0.932722 0.176809 0.878407 0.598918 0.000000 0.000000 0.000000 6.554662 -2.166620 1.537159 -8.955707 -1.544684 -0.282499 -17.267828 -0.376831 -3.209775 0.000000 0.000000 0.000000 7.607455 -2.257072 1.942952 0.691483 -13.939984 -9.058581 -3.291510 -0.877536 -3.761681 -9.251528 -13.804179 -40.622202 49.886510 -50.420067 27.763232 0.000000 0.000000 0.000000 7.246038 -2.727824 1.079654 10.101300 -4.915843 18.457015 -1.259450 4.177009 0.271334 -34.091776 -2.662991 30.603219 145.454493 75.644413 -135.585484 0.000000 0.000000 0.000000 
-0.143753 27.999693 -0.333128 0.000000 0.000000 0.000000 -13.163026 13.561481 0.159954 -18.576137 -9.209626 13.167285 59.998793 -0.365789 1.481459 -31.974509 0.767694 -14.760245 -0.569252 -0.350502 -0.495258 0.000000 0.000000 0.000000 -13.519221 14.852427 0.461756 0.081259 -14.601508 -18.775241 51.346572 4.107355 0.710514 -39.323940 -9.672860 13.354456 4.049622 -0.992804 -0.881430 0.000000 0.000000 0.000000 -13.961455 13.617751 0.436521 17.744850 -2.777621 2.172292 6.282602 -2.704269 1.100541 0.413768 0.913800 -0.178056 0.000000 0.000000 0.000000 6.108006 -2.700095 1.853047 -8.288400 -3.155668 2.134059 -16.990258 -1.053116 -3.963164 0.000000 0.000000 0.000000 6.798650 -2.680024 2.062917 0.646389 -15.052905 -10.041017 -2.412322 -1.490887 -4.103508 -8.724382 -13.563917 -36.329920 48.625196 -50.019842 22.096082 0.000000 0.000000 0.000000 6.169392 -3.337731 1.167768 9.354207 -6.508350 15.732922 0.394538 4.381087 0.365960 -46.202729 -1.658853 27.900174 162.496921 73.872334 -152.581180 0.000000 0.000000 0.000000 
-0.044052 28.366203 -0.247257 0.000000 0.000000 0.000000 -11.543575 16.007573 0.495594 -19.645700 -10.689033 11.627250 57.943616 -0.096190 1.084334 -30.359108 0.323473 -14.553531 -0.412607 -0.275172 -0.532190 0.000000 0.000000 0.000000 -11.920195 16.955714 0.808533 0.420245 -17.031604 -19.144680 48.887185 3.820389 1.119637 -38.813069 -10.101474 13.191940 4.269726 -0.910506 -1.213712 0.000000 0.000000 0.000000 -12.756650 16.069417 0.714869 17.605289 -2.917363 2.100805 5.639541 -2.967060 1.268259 0.737334 0.782073 -0.778918 0.000000 0.000000 0.000000 5.790920 -2.988201 2.089717 -8.349783 -5.100042 4.665979 -17.193297 -2.575666 -4.323945 0.000000 0.000000 0.000000 5.975446 -2.858549 2.137303 0.637646 -16.003488 -11.134968 -1.642477 -2.230992 -4.512597 -9.001050 -13.104796 -32.972796 46.671123 -50.006499 16.433205 0.000000 0.000000 0.000000 5.162540 -3.675198 1.246896 8.274064 -7.625959 11.314034 0.798019 5.231018 0.840154 -60.827431 1.595473 28.201380 167.027113 73.908323 -157.237785 0.000000 0.000000 0.000000 
